<svg id="Layer_35" enable-background="new 0 0 64 64" height="512" viewBox="0 0 64 64" width="512" xmlns="http://www.w3.org/2000/svg"><circle cx="6" cy="60" fill="#ffc729" r="2"/><circle cx="16" cy="55" fill="#ffc729" r="2"/><circle cx="58" cy="60" fill="#ffc729" r="2"/><circle cx="48" cy="55" fill="#ffc729" r="2"/><path d="m56 27.02v11.96c-1.42-.11-2.75-.73-3.76-1.74l-.24-.24v-8l.24-.24c1.01-1.01 2.34-1.63 3.76-1.74z" fill="#fc6e51"/><path d="m48 33-4 4v-8z" fill="#fc6e51"/><path d="m20 29v8l-4-4z" fill="#fc6e51"/><path d="m12 29v8l-.24.24c-1.01 1.01-2.34 1.63-3.76 1.74v-11.96c1.42.11 2.75.73 3.76 1.74z" fill="#fc6e51"/><g fill="#ff826e"><path d="m8 27.02v11.96c-.16.01-.33.02-.49.02h-3.51v-12h3.51c.16 0 .33.01.49.02z"/><path d="m16 33-4 4v-8z"/><path d="m24 27.02v11.96c-1.41-.11-2.75-.73-3.76-1.74l-.24-.24v-8l.24-.24c1.01-1.01 2.35-1.63 3.76-1.74z"/><path d="m44 29v8l-.24.24c-1.01 1.01-2.35 1.63-3.76 1.74v-11.96c1.41.11 2.75.73 3.76 1.74z"/><path d="m52 29v8l-4-4z"/><path d="m60 27v12h-3.51c-.16 0-.33-.01-.49-.02v-11.96c.16-.01.33-.02.49-.02z"/></g><path d="m32 50v9c0 .83-.34 1.58-.88 2.12s-1.29.88-2.12.88c-1.66 0-3-1.34-3-3v-10.19c1.07.38 2.48.8 4 1.02.65.09 1.33.15 2 .15z" fill="#f0d0b4"/><path d="m38 48.81v10.19c0 1.66-1.34 3-3 3-.83 0-1.58-.34-2.12-.88s-.88-1.29-.88-2.12v-9-.02c2.23 0 4.46-.62 6-1.17z" fill="#f0d0b4"/><path d="m27 13.29 4.81 5.5-1.81 2.21v28.82.01c-1.52-.22-2.93-.64-4-1.02v-.01c-1.22-.43-2-.82-2-.82v-9-11.96-5.26c0-1.75-.77-3.42-2.1-4.56l-10.94-9.38c-.61-.52-.96-1.28-.96-2.08 0-.76.31-1.44.8-1.94.5-.49 1.18-.8 1.94-.8h.2c.68 0 1.34.25 1.84.71l8.86 8.05c.89.81 2 1.33 3.18 1.5z" fill="#fcd770"/><path d="m30 49.82v-28.82l1.81-2.21 4.41-5.39.96-.14c1.18-.17 2.29-.69 3.18-1.5l8.86-8.05c.5-.46 1.16-.71 1.84-.71h.2c1.51 0 2.74 1.23 2.74 2.74 0 .8-.35 1.56-.96 2.08l-10.94 9.38c-1.33 1.14-2.1 2.81-2.1 4.56v5.26 11.96 9s-.78.39-2 .82v.01c-1.54.55-3.77 1.17-6 1.17-.67 0-1.35-.06-2-.15z" fill="#fcd770"/><path d="m27 13.29 3.33.47c.53.16 1.09.24 1.67.24s1.14-.08 1.67-.24l2.55-.36-4.41 5.39z" fill="#ccd1d9"/><path d="m32 2c3.31 0 6 2.69 6 6 0 2.73-1.83 5.04-4.33 5.76l-1.67.24-1.67-.24c-2.5-.72-4.33-3.03-4.33-5.76 0-3.31 2.69-6 6-6z" fill="#f0d0b4"/><path d="m33 21h2v2h-2z"/><path d="m33 25h2v2h-2z"/><path d="m33 29h2v2h-2z"/><path d="m33 33h2v2h-2z"/><path d="m33 37h2v2h-2z"/><path d="m33 41h2v2h-2z"/><path d="m63 28v-2h-6.515c-1.869 0-3.627.728-4.95 2.05l-3.535 3.536-3.535-3.536c-.952-.952-2.161-1.585-3.465-1.87v-4.42c0-1.461.637-2.845 1.746-3.796l10.947-9.384c.83-.712 1.307-1.747 1.307-2.84 0-2.062-1.678-3.74-3.74-3.74h-.2c-.933 0-1.826.345-2.517.973l-8.853 8.048c-.591.537-1.296.913-2.059 1.119.857-1.161 1.369-2.59 1.369-4.14 0-3.86-3.141-7-7-7s-7 3.14-7 7c0 1.55.512 2.979 1.368 4.14-.763-.206-1.468-.582-2.059-1.119l-8.854-8.049c-.688-.627-1.582-.972-2.515-.972h-.2c-2.062 0-3.74 1.678-3.74 3.74 0 1.093.477 2.128 1.307 2.84l10.947 9.384c1.109.951 1.746 2.334 1.746 3.796v4.42c-1.303.284-2.513.918-3.465 1.87l-3.535 3.536-3.535-3.536c-1.323-1.322-3.081-2.05-4.95-2.05h-6.515v2h2v10h-2v2h6.515c1.869 0 3.627-.728 4.95-2.05l3.535-3.536 3.535 3.535c.952.952 2.161 1.586 3.465 1.87v8.775l.553.276c.06.03.601.295 1.447.627v9.503c0 2.206 1.794 4 4 4 1.201 0 2.266-.542 3-1.382.734.84 1.799 1.382 3 1.382 2.206 0 4-1.794 4-4v-9.502c.847-.331 1.388-.597 1.447-.627l.553-.276v-8.775c1.303-.284 2.513-.918 3.465-1.87l3.535-3.536 3.535 3.536c1.323 1.322 3.081 2.05 4.95 2.05h6.515v-2h-2v-10zm-10 1.423c.572-.557 1.258-.944 2-1.175v9.504c-.742-.231-1.428-.618-2-1.174zm-21.213-12.186-2.257-2.58.639.091c.55.15 1.126.236 1.721.246l.11.016.111-.016c.591-.009 1.162-.095 1.709-.243zm.213-14.237c2.757 0 5 2.243 5 5 0 2.298-1.568 4.22-3.684 4.802l-1.316.188-1.316-.188c-2.116-.582-3.684-2.504-3.684-4.802 0-2.757 2.243-5 5-5zm-9.445 13.445-10.948-9.384c-.385-.331-.607-.812-.607-1.321 0-.96.78-1.74 1.74-1.74h.2c.434 0 .85.161 1.171.452l8.853 8.049c.988.898 2.201 1.476 3.511 1.704l4.027 4.602-1.502 1.836v27.982c-1.734-.375-3.231-.958-4-1.291v-25.574c0-2.047-.892-3.984-2.445-5.315zm-13.555 11.803c.742.231 1.428.618 2 1.174v7.154c-.572.557-1.258.944-2 1.175zm-4-.248h2v10h-2zm8 6.586v-3.172l1.586 1.586zm6-3.172v3.172l-1.586-1.586zm2 5.164v-7.156c.566-.551 1.254-.948 2-1.181v9.518c-.745-.233-1.434-.63-2-1.181zm8 24.422c-1.103 0-2-.897-2-2v-8.818c1.18.347 2.565.651 4 .754v8.064c0 1.103-.897 2-2 2zm8-2c0 1.103-.897 2-2 2s-2-.897-2-2v-8.064c1.435-.103 2.82-.407 4-.754zm2-11.665c-1.189.516-4.116 1.642-7 1.642-.333 0-.668-.018-1-.046v-27.574l5.748-7.025.569-.081c1.392-.199 2.678-.804 3.719-1.75l8.852-8.048c.322-.292.738-.453 1.172-.453h.2c.96 0 1.74.78 1.74 1.74 0 .509-.222.99-.607 1.321l-10.947 9.384c-1.554 1.331-2.446 3.268-2.446 5.315zm2-19.094c.746.233 1.434.63 2 1.181v7.156c-.566.551-1.254.948-2 1.181zm4 6.345v-3.172l1.586 1.586zm6-3.172v3.172l-1.586-1.586zm8 6.586h-2v-10h2z"/><path d="m59 57.184v-11.184h-2v11.184c-1.161.414-2 1.514-2 2.816 0 1.654 1.346 3 3 3s3-1.346 3-3c0-1.302-.839-2.402-2-2.816zm-1 3.816c-.552 0-1-.449-1-1s.448-1 1-1 1 .449 1 1-.448 1-1 1z"/><path d="m57 42h2v2h-2z"/><path d="m49 52.184v-11.184h-2v11.184c-1.161.414-2 1.514-2 2.816 0 1.654 1.346 3 3 3s3-1.346 3-3c0-1.302-.839-2.402-2-2.816zm-1 3.816c-.552 0-1-.449-1-1s.448-1 1-1 1 .449 1 1-.448 1-1 1z"/><path d="m47 37h2v2h-2z"/><path d="m7 57.184v-11.184h-2v11.184c-1.161.414-2 1.514-2 2.816 0 1.654 1.346 3 3 3s3-1.346 3-3c0-1.302-.839-2.402-2-2.816zm-1 3.816c-.552 0-1-.449-1-1s.448-1 1-1 1 .449 1 1-.448 1-1 1z"/><path d="m5 42h2v2h-2z"/><path d="m17 52.184v-11.184h-2v11.184c-1.161.414-2 1.514-2 2.816 0 1.654 1.346 3 3 3s3-1.346 3-3c0-1.302-.839-2.402-2-2.816zm-1 3.816c-.552 0-1-.449-1-1s.448-1 1-1 1 .449 1 1-.448 1-1 1z"/><path d="m15 37h2v2h-2z"/></svg>