<svg id="Capa_1" enable-background="new 0 0 512 512" height="512" viewBox="0 0 512 512" width="512" xmlns="http://www.w3.org/2000/svg"><g><g><path d="m325.489 180.75h141v30h-141z" fill="#ccfc5c"/></g><g><path d="m395.989 180.75h70.5v30h-70.5z" fill="#00cb75"/></g><g><path d="m325.489 60.229h141v30h-141z" fill="#ccfc5c"/></g><g><path d="m395.989 60.229h70.5v30h-70.5z" fill="#00cb75"/></g><g><path d="m325.489 421.729h141v30h-141z" fill="#ccfc5c"/></g><g><path d="m395.989 421.729h70.5v30h-70.5z" fill="#00cb75"/></g><g><path d="m344.875 241h141.114v30h-141.114z" fill="#ccfc5c"/></g><g><path d="m395.989 241h90v30h-90z" fill="#00cb75"/></g><g><path d="m338.511 301.25h127.978v30h-127.978z" fill="#ccfc5c"/></g><g><path d="m395.989 301.25h70.5v30h-70.5z" fill="#00cb75"/></g><g><path d="m305.989 512c-8.284 0-15-6.716-15-15 0-30.889 10.453-57.567 31.955-81.558 18.133-20.232 41.807-36.081 64.7-51.407 44.722-29.938 83.345-55.794 83.345-108.035s-38.623-78.097-83.345-108.035c-22.894-15.326-46.567-31.174-64.7-51.407-21.502-23.991-31.955-50.669-31.955-81.558 0-8.284 6.716-15 15-15s15 6.716 15 15c0 52.241 38.623 78.097 83.345 108.035 22.894 15.326 46.567 31.174 64.7 51.407 21.502 23.991 31.955 50.669 31.955 81.558s-10.453 57.567-31.955 81.558c-18.133 20.232-41.807 36.081-64.7 51.407-44.722 29.938-83.345 55.794-83.345 108.035 0 8.284-6.716 15-15 15z" fill="#ff8659"/></g><g><path d="m469.034 174.442c-18.133-20.232-41.807-36.081-64.7-51.407-2.808-1.88-5.592-3.744-8.345-5.599v36.128c41.075 27.69 75 53.476 75 102.436s-33.925 74.745-75 102.436v36.128c2.752-1.855 5.536-3.719 8.345-5.599 22.894-15.326 46.567-31.174 64.7-51.407 21.502-23.991 31.955-50.669 31.955-81.558s-10.452-57.567-31.955-81.558z" fill="#ff4a4a"/></g><g><path d="m485.989 512c-8.284 0-15-6.716-15-15 0-52.241-38.623-78.097-83.345-108.035-22.894-15.326-46.567-31.174-64.7-51.407-21.502-23.991-31.955-50.669-31.955-81.558s10.453-57.567 31.955-81.558c18.133-20.232 41.807-36.081 64.7-51.407 44.722-29.938 83.345-55.794 83.345-108.035 0-8.284 6.716-15 15-15s15 6.716 15 15c0 30.889-10.453 57.567-31.955 81.558-18.133 20.232-41.807 36.081-64.7 51.407-44.722 29.938-83.345 55.794-83.345 108.035s38.623 78.097 83.345 108.035c22.894 15.326 46.567 31.174 64.7 51.407 21.502 23.991 31.955 50.669 31.955 81.558 0 8.284-6.716 15-15 15z" fill="#8bb9ff"/></g><g><path d="m404.334 364.035c-2.808-1.88-5.592-3.744-8.345-5.599v36.128c41.075 27.69 75 53.476 75 102.436 0 8.284 6.716 15 15 15s15-6.716 15-15c0-30.889-10.453-57.567-31.955-81.558-18.133-20.233-41.806-36.081-64.7-51.407z" fill="#7d81e7"/></g><path d="m404.334 147.965c22.894-15.326 46.567-31.174 64.7-51.407 21.503-23.991 31.955-50.669 31.955-81.558 0-8.284-6.716-15-15-15s-15 6.716-15 15c0 48.96-33.925 74.745-75 102.436v36.128c2.753-1.855 5.537-3.719 8.345-5.599z" fill="#7d81e7"/><g><g><g><path d="m153.859 326.704-134.062 134.062c-11.716 11.716-11.716 30.71 0 42.426 11.716 11.716 30.711 11.716 42.427 0l134.062-134.062c5.858-5.858 5.858-15.355 0-21.213l-21.213-21.213c-5.858-5.858-15.356-5.858-21.214 0z" fill="#8bb9ff"/></g></g><g><path d="m185.679 337.311-165.881 165.881c11.716 11.716 30.711 11.716 42.426 0l134.062-134.062c5.858-5.858 5.858-15.355 0-21.213z" fill="#7d81e7"/></g></g><g><g><path d="m246.908 391.081c-63.411 0-115-51.589-115-115s51.589-115 115-115 115 51.589 115 115-51.589 115-115 115z" fill="#fff16b"/></g><g><path d="m328.187 194.802-162.558 162.558c20.824 20.824 49.574 33.721 81.279 33.721 63.411 0 115-51.589 115-115 0-31.705-12.897-60.455-33.721-81.279z" fill="#ffb655"/></g><circle cx="246.908" cy="276.081" fill="#f9f9f9" r="85"/><g><path d="m306.984 216.005-120.152 120.152c15.391 15.391 36.641 24.924 60.076 24.924 46.869 0 85-38.131 85-85 0-23.434-9.533-44.684-24.924-60.076z" fill="#e2dff4"/></g></g></g></svg>